# xmcd
#
# Track frame offsets:
#	182
#	3420
#	16222
#	29957
#	45957
#	58707
#	73987
#	92640
#	108450
#	121797
#	139135
#	154555
#
# Disc length: 2281 seconds
#
# Revision: 3
# Processed by: cddbd v1.5.1PL2 Copyright (c) Steve Scherf et al.
# Submitted via: dBpowerAMP V4.0
#
DISCID=9b08e70c
DTITLE=Deborah Allen - All That I Am
DYEAR=1994
DGENRE=Country
TTITLE0=Break These Chains (Acapella Intro)
TTITLE1=Break These Chains
TTITLE2=Wrong Side Of Love
TTITLE3=Thinkin' Again
TTITLE4=My Baby
TTITLE5=Give It To Me
TTITLE6=Talkin' To My Heart
TTITLE7=Blame It On The Heat
TTITLE8=Hurt Me
TTITLE9=Leave My Heart Alone
TTITLE10=Boys On The Wrong Side Of Town
TTITLE11=All That I Am
EXTD=
EXTT0=
EXTT1=
EXTT2=
EXTT3=
EXTT4=
EXTT5=
EXTT6=
EXTT7=
EXTT8=
EXTT9=
EXTT10=
EXTT11=
PLAYORDER=
